<svg width="430" height="430" viewBox="0 0 430 430" fill="none" xmlns="http://www.w3.org/2000/svg">
<path d="M336.3 168.9C318.4 126.8 276.6 97.2998 228 97.2998C182.6 97.2998 143.2 123.1 123.5 160.8C119.9 159.6 116.1 159 112.2 159C91.9998 159 75.5998 175.4 75.5998 195.6C75.5998 198.3 75.8998 200.9 76.4998 203.5C54.6998 215 39.7998 237.8 39.7998 264.1C39.7998 301.9 70.4998 332.6 108.3 332.6C128.4 332.6 292.6 332.6 305.2 332.6C352.1 332.6 390 294.6 390 247.8C390.2 211.9 367.8 181.3 336.3 168.9Z" stroke="#121331" stroke-width="12" stroke-miterlimit="14" stroke-linecap="round" stroke-linejoin="round"/>
<path d="M146.6 183.3C141.5 169.2 128 159 112.1 159M336 168C342.3 182.4 345.7 198.3 345.7 214.9C345.7 214.9 345.7 227.3 341.4 242.6" stroke="#121331" stroke-width="12" stroke-miterlimit="14" stroke-linecap="round" stroke-linejoin="round"/>
<path d="M176.3 226.7L139.4 253.9L176.3 281.2" stroke="#08A88A" stroke-width="12" stroke-miterlimit="10" stroke-linecap="round" stroke-linejoin="round"/>
<path d="M267.3 226.7L304.3 253.9L267.3 281.2" stroke="#08A88A" stroke-width="12" stroke-miterlimit="10" stroke-linecap="round" stroke-linejoin="round"/>
<path d="M230.2 226.7L212.6 281.2" stroke="#08A88A" stroke-width="12" stroke-miterlimit="10" stroke-linecap="round" stroke-linejoin="round"/>
</svg>
